<svg id="Layer_1" data-name="Layer 1" xmlns="http://www.w3.org/2000/svg" xmlns:xlink="http://www.w3.org/1999/xlink" viewBox="0 0 800 298.31"><defs><style>.cls-1{fill:none;}.cls-2{clip-path:url(#clip-path);}.cls-3{fill:#e44d60;}.cls-4{fill:#e4bd7a;}.cls-5{fill:#1c798a;}.cls-6{fill:#77b691;}.cls-7{fill:#14233c;}</style><clipPath id="clip-path"><rect class="cls-1" x="1" y="0.15" width="800" height="298"/></clipPath></defs><title>Artboard 2 copy</title><g class="cls-2"><path class="cls-3" d="M233.33,179.84a7.29,7.29,0,0,1-2.14,5.16l-32.63,32.63a2.92,2.92,0,0,1-5-2.06V142.45l39.29-39.08h.46Z"/><path class="cls-4" d="M207.28,77.33a2.91,2.91,0,0,0-4.12,0l-48.52,48.53H154v54.77l.68,1.43,38.94-38.94,39.75-39.75Z"/><path class="cls-5" d="M76,179.84A7.28,7.28,0,0,0,78.08,185l32.63,32.63a2.92,2.92,0,0,0,5-2.06V142.45L76.4,103.37H76Z"/><path class="cls-6" d="M106.11,77.33a2.91,2.91,0,0,0-4.12,0l-26,26,39.74,39.75,38.95,38.94v-56.2Z"/><path class="cls-7" d="M282.17,180.86v-73H301.6v9.78c4.48-7.47,11-11.14,19.83-11.14s15.49,3.8,20.25,11.68c7.61-8,13.45-11.68,22.55-11.68,16.44,0,25.68,9.24,25.68,26.22v48.1H369V141.32c0-10.19-2.18-14.81-10.19-14.81-8.16,0-12.5,5-12.5,14.81v39.54H325.24V141.32c0-10.19-2.18-14.81-10.19-14.81-8.16,0-12.5,5-12.5,14.81v39.54Z"/><path class="cls-7" d="M416.21,117.41a38.52,38.52,0,0,1,65.9,26.49c0,11-3.67,20.11-11,27.45a37.83,37.83,0,0,1-27.72,11.41c-11.14,0-20.1-3.81-27.58-11.69a38.13,38.13,0,0,1-10.73-26.9A37.39,37.39,0,0,1,416.21,117.41Zm27.31,45c9.51,0,17.26-8,17.26-17.94s-7.75-18.07-17.26-18.07-17.25,8-17.25,18.07S434.15,162.38,443.52,162.38Z"/><path class="cls-7" d="M497.27,180.86v-73h20.38l-.27,9.78c4.48-7.34,11.27-11.14,20.92-11.14,15.08,0,24.86,9.51,24.86,26.22v48.1H541.7V141.32c0-10.19-2.18-14.81-10.47-14.81s-12.9,5-12.9,14.81v39.54Z"/><path class="cls-7" d="M656.09,117.41A38.51,38.51,0,0,1,722,143.9c0,11-3.66,20.11-11,27.45a37.83,37.83,0,0,1-27.72,11.41c-11.14,0-20.11-3.81-27.58-11.69A38.13,38.13,0,0,1,645,144.17,37.39,37.39,0,0,1,656.09,117.41Zm27.31,45c9.51,0,17.25-8,17.25-17.94s-7.74-18.07-17.25-18.07-17.26,8-17.26,18.07S674,162.38,683.4,162.38Z"/><path class="cls-7" d="M579.78,180.86V165.64l30-38.86h-30V107.9H634v17.25L607.5,162h27v18.89Z"/></g></svg>